<?xml version="1.0" encoding="UTF-8" standalone="no"?>
<!-- Created with Inkscape (http://www.inkscape.org/) -->

<svg
   xmlns:dc="http://purl.org/dc/elements/1.1/"
   xmlns:cc="http://creativecommons.org/ns#"
   xmlns:rdf="http://www.w3.org/1999/02/22-rdf-syntax-ns#"
   xmlns:svg="http://www.w3.org/2000/svg"
   xmlns="http://www.w3.org/2000/svg"
   xmlns:sodipodi="http://sodipodi.sourceforge.net/DTD/sodipodi-0.dtd"
   xmlns:inkscape="http://www.inkscape.org/namespaces/inkscape"
   width="83.375mm"
   height="21.321863mm"
   viewBox="0 0 83.375 21.321864"
   version="1.1"
   id="svg8"
   inkscape:version="0.92.3 (2405546, 2018-03-11)"
   sodipodi:docname="Noice.svg">
  <defs
     id="defs2" />
  <sodipodi:namedview
     id="base"
     pagecolor="#ffffff"
     bordercolor="#666666"
     borderopacity="1.0"
     inkscape:pageopacity="0.0"
     inkscape:pageshadow="2"
     inkscape:zoom="2.3045915"
     inkscape:cx="161.22761"
     inkscape:cy="36.844447"
     inkscape:document-units="mm"
     inkscape:current-layer="layer1"
     showgrid="false"
     fit-margin-top="1.2"
     fit-margin-left="2"
     fit-margin-right="2"
     fit-margin-bottom="1.2"
     inkscape:window-width="1131"
     inkscape:window-height="849"
     inkscape:window-x="654"
     inkscape:window-y="71"
     inkscape:window-maximized="0" />
  <metadata
     id="metadata5">
    <rdf:RDF>
      <cc:Work
         rdf:about="">
        <dc:format>image/svg+xml</dc:format>
        <dc:type
           rdf:resource="http://purl.org/dc/dcmitype/StillImage" />
        <dc:title></dc:title>
      </cc:Work>
    </rdf:RDF>
  </metadata>
  <g
     inkscape:label="Layer 1"
     inkscape:groupmode="layer"
     id="layer1"
     transform="translate(-93.909714,-106.96842)">
    <g
       id="g21"
       transform="matrix(0.09921786,0,0,0.09921786,125.10045,102.86276)">
      <path
         style="fill:#0073ba;stroke-width:0.08466667"
         d="m -205.86698,244.15949 c -4.12388,-0.24434 -5.23902,-0.33942 -7.91633,-0.67493 -9.05374,-1.13459 -17.93411,-3.6414 -26.289,-7.42105 -2.32341,-1.05108 -3.88873,-1.84293 -3.79971,-1.92215 0.0409,-0.0364 0.85543,-0.68934 1.81005,-1.45097 12.72605,-10.15324 26.24789,-21.51376 37.67666,-31.65448 44.67548,-39.64039 73.13105,-73.60852 82.83811,-98.88595 0.31077,-0.80925 0.5517,-1.48471 0.53539,-1.50102 -0.0163,-0.0163 -0.38925,0.51246 -0.82874,1.17503 -2.3867,3.59812 -5.54303,7.38566 -9.22343,11.06796 -2.10242,2.10351 -3.39175,3.27265 -7.19782,6.52681 -15.665,13.39347 -36.89995,28.76244 -60.45084,43.75177 -12.31658,7.83908 -25.03062,15.52084 -37.50733,22.66172 -6.31385,3.61365 -19.47647,10.9846 -22.18267,12.4221 -0.48895,0.25973 -3.27025,1.74684 -6.18067,3.3047 -10.65856,5.70522 -11.10019,5.93385 -11.22001,5.80871 -0.24801,-0.25903 -2.012,-2.76999 -3.09131,-4.40035 -2.4369,-3.68106 -4.83917,-7.95098 -6.52005,-11.58906 -0.33348,-0.72178 -0.75224,-1.61882 -0.93057,-1.99341 -0.45299,-0.95151 -1.41475,-3.29381 -2.03263,-4.9503 -8.94516,-23.98141 -7.5495,-50.52988 3.85432,-73.31779 5.75171,-11.493464 13.77471,-21.570656 23.79259,-29.884409 1.52719,-1.267405 4.69565,-3.665606 6.35,-4.806309 12.56086,-8.660927 27.09175,-14.055093 42.24866,-15.683573 5.56951,-0.598395 12.09759,-0.677272 17.653,-0.213294 18.68553,1.56058 36.383,8.783277 50.84436,20.750615 2.21632,1.834096 3.94944,3.424677 6.39567,5.869685 3.00296,3.001462 5.00395,5.233056 7.3108,8.153344 0.32184,0.407425 0.61394,0.740773 0.64912,0.740773 0.16063,0 1.91417,-2.317844 2.97995,-3.938915 4.20326,-6.393308 5.57445,-12.805761 3.95989,-18.518688 -2.08805,-7.388313 -8.95528,-13.298212 -18.71512,-16.106133 -8.28719,-2.384237 -18.63123,-2.803301 -28.34565,-1.148357 -0.48094,0.08193 -0.84358,0.122006 -0.80589,0.08905 0.0958,-0.08378 2.41304,-0.698487 4.13254,-1.096275 11.10931,-2.570028 22.74051,-2.455809 31.242,0.306799 3.7116,1.206109 6.62204,2.612097 9.64624,4.659959 4.25363,2.880382 7.90855,6.856806 10.60808,11.541225 2.33016,4.043473 3.56464,7.782213 4.13632,12.527332 0.18537,1.538589 0.25617,5.763709 0.12661,7.55603 -0.52098,7.207375 -2.34697,14.471261 -5.86293,23.322901 l -0.84787,2.1346 0.42564,1.08274 c 6.29964,16.02471 7.99428,33.34831 4.92206,50.3164 -5.06387,27.9682 -23.11278,52.27955 -48.46949,65.28699 -11.21285,5.75196 -22.75235,8.97544 -35.60233,9.94529 -1.6145,0.12186 -8.81472,0.23207 -10.11767,0.15488 z m 10.20234,-19.21133 c 5.96863,-0.54183 11.40783,-1.68758 17.018,-3.5848 21.2693,-7.19275 38.40641,-24.3194 45.59152,-45.56369 1.95496,-5.78026 3.10865,-11.36173 3.65759,-17.69534 0.18905,-2.18129 0.21715,-9.21015 0.0448,-11.21833 -0.13283,-1.54817 -0.43407,-4.29586 -0.51449,-4.69274 l -0.0588,-0.29007 -0.6269,1.00974 c -14.28279,23.00476 -37.12515,51.1674 -65.18187,80.36357 -1.40612,1.46323 -1.69142,1.7991 -1.52793,1.79882 0.11056,0 0.82967,-0.0574 1.59802,-0.12716 z m -73.1363,-47.74212 c 4.3306,-1.88099 17.98148,-8.12351 25.42663,-11.62753 12.35266,-5.81372 27.25895,-13.29237 39.497,-19.81607 15.66439,-8.35018 30.19586,-16.85122 43.815,-25.63218 6.05537,-3.9042 16.50987,-11.17293 16.45038,-11.43749 -0.0369,-0.16429 -2.02926,-2.70201 -3.11738,-3.97077 -5.42577,-6.326568 -12.0829,-11.840934 -19.25967,-15.953564 -1.61285,-0.924242 -4.88775,-2.586021 -6.5288,-3.312906 -12.7043,-5.627215 -26.65098,-7.496881 -40.63053,-5.446855 -3.08006,0.451674 -6.95849,1.316845 -10.07533,2.24753 -13.61777,4.066243 -25.86846,12.183148 -35.12115,23.270125 -8.19266,9.8168 -13.66304,21.64021 -15.80633,34.163 -1.82558,10.66653 -1.28275,21.7483 1.56798,32.00973 0.69691,2.50858 1.93558,6.21727 2.07651,6.21727 0.0387,0 0.80628,-0.31963 1.70569,-0.71029 z m 670.45962,-23.12338 v -48.133 h 10.87966 10.87967 v 48.133 48.13301 h -10.87967 -10.87966 z m 41.14799,0 v -48.133 h 10.87967 10.87967 V 144.6 183.25033 h 20.61633 20.61633 v 9.48267 9.48267 h -31.496 -31.496 z"
         id="path25"
         inkscape:connector-curvature="0"
         sodipodi:nodetypes="ccsccscsccsssccccsccscssscscscssccsssccccccsscccssccccccccccssscccsssssssccccccccccccccccccccccc" />
      <path
         style="fill:#221e1f;stroke-width:0.08466667"
         d="m -206.12098,244.12587 c -2.7979,-0.13864 -5.80718,-0.40583 -8.23568,-0.73124 l -1.03902,-0.13922 6.07668,-6.10719 c 3.34218,-3.35895 7.35284,-7.42082 8.91257,-9.02637 1.55973,-1.60555 2.91228,-2.94598 3.00566,-2.97873 0.0934,-0.0328 0.91274,-0.12092 1.82079,-0.19592 9.67295,-0.79899 19.56261,-3.7771 28.194,-8.49018 8.1477,-4.44895 15.4508,-10.45366 21.38823,-17.58569 5.51913,-6.62957 9.82963,-14.19002 12.6828,-22.24512 1.38249,-3.90307 2.56224,-8.52285 3.22332,-12.62214 1.08921,-6.75409 1.22344,-14.16156 0.37741,-20.82663 l -0.16983,-1.33788 1.30279,-2.17578 c 4.64319,-7.75459 8.69918,-15.54496 11.19687,-21.50594 l 0.33023,-0.78815 0.15098,0.35548 c 0.39216,0.92337 1.49604,3.93786 2.02187,5.52132 2.64,7.95 4.12186,15.91756 4.56749,24.55828 0.11271,2.18544 0.06,8.67543 -0.0861,10.59589 -0.64031,8.41799 -2.0631,15.59605 -4.57311,23.07167 -5.30132,15.7891 -14.68592,29.69684 -27.41843,40.63342 -12.71026,10.91748 -28.27885,18.16678 -44.83688,20.8777 -2.97879,0.4877 -6.06016,0.83583 -9.36763,1.05837 -1.77546,0.11946 -7.74708,0.17216 -9.525,0.084 z m 460.24799,-41.15476 c -5.12523,-0.3366 -10.04361,-1.34804 -14.62495,-3.00756 -16.26569,-5.892 -27.89658,-19.36466 -31.21504,-36.15795 -0.96779,-4.89756 -1.19741,-10.53362 -0.63242,-15.5226 1.71507,-15.14445 10.4359,-28.33403 23.79277,-35.98472 5.90434,-3.38195 12.58368,-5.59423 19.54698,-6.4742 2.81625,-0.35589 3.93096,-0.42138 7.15433,-0.42031 3.31036,0.001 4.66424,0.0936 7.4748,0.51082 9.65625,1.43339 19.15445,5.65978 26.43122,11.76104 1.26348,1.05937 3.35953,3.0119 3.32938,3.1014 -0.0134,0.0398 -2.42087,3.08313 -5.34988,6.76289 l -5.32548,6.69047 -1.32085,-1.33458 c -3.24006,-3.27372 -6.83162,-5.86026 -10.79764,-7.77614 -6.69796,-3.23561 -13.54696,-4.14302 -20.66455,-2.73781 -12.901,2.54702 -22.76112,12.42537 -25.17724,25.2238 -0.40583,2.14973 -0.47676,3.04397 -0.47676,6.01134 0,3.46728 0.16671,5.01143 0.84707,7.84586 2.95638,12.31642 13.01699,21.63782 25.66665,23.78077 2.23254,0.37821 3.79706,0.48565 6.33695,0.4352 2.36303,-0.047 3.32769,-0.14178 5.37633,-0.52852 6.90043,-1.30265 13.66676,-4.75082 19.22484,-9.79712 l 0.97917,-0.88901 5.35409,5.96402 c 2.94475,3.2802 5.37257,6.01219 5.39517,6.07107 0.0466,0.12154 -1.67878,1.8275 -3.01331,2.97932 -9.17811,7.92157 -20.45987,12.69164 -31.91929,13.49591 -1.39576,0.098 -4.87721,0.0961 -6.39234,-0.003 z M -19.17698,202.838 c -1.028345,-0.0659 -3.928838,-0.37712 -5.08,-0.54502 -9.776858,-1.42599 -19.695939,-5.44046 -27.601333,-11.17085 -1.1843,-0.85846 -3.268294,-2.51422 -4.017204,-3.19171 l -0.461214,-0.41723 3.667032,-7.40192 c 2.01687,-4.07107 3.750725,-7.56706 3.853002,-7.76889 l 0.185971,-0.36696 0.934144,0.79734 c 6.739052,5.75199 15.346502,10.24025 23.397269,12.20027 3.039651,0.74002 5.379525,1.0617 8.212666,1.12905 10.5234061,0.25014 16.94407716,-3.49089 17.2459053,-10.04841 0.2140289,-4.64997 -2.2787101,-8.08225 -7.8055722,-10.7476 -2.7997318,-1.35019 -5.7295371,-2.35031 -13.0386661,-4.45094 -7.41901,-2.1322 -11.216471,-3.42138 -14.67474,-4.98188 -9.792546,-4.41872 -14.781021,-10.52493 -15.988249,-19.57059 -0.210245,-1.57535 -0.211532,-5.67035 -0.0022,-7.15433 0.986121,-6.99227 4.212336,-12.46159 9.837234,-16.67681 5.714635,-4.28247 13.293699,-6.73669 22.521332,-7.29277 1.79324,-0.10807 6.863902,-0.0544 8.3820002,0.0888 6.5911644,0.62144 12.2134204,1.87589 17.876147,3.98857 4.0660998,1.51699 8.3396498,3.60413 11.3150558,5.52609 l 0.743196,0.48007 -0.114715,0.2332 c -0.06309,0.12827 -1.730807,3.70984 -3.706038,7.95905 -1.975222,4.2492 -3.612591,7.72583 -3.638583,7.72583 -0.02599,0 -0.654863,-0.34858 -1.3975,-0.77461 -9.0548287,-5.19463 -19.846247,-8.53872 -27.554605,-8.53872 -5.351077,0 -9.653397,1.30574 -12.001711,3.6425 -1.507152,1.49974 -2.218555,3.25144 -2.221179,5.46924 -0.0048,4.08704 2.259727,7.16289 7.127383,9.68084 2.936816,1.51916 5.599566,2.46391 14.2075069,5.04086 7.7450694,2.31864 11.8087391,3.81425 15.5363329,5.71801 3.5230642,1.79931 6.0572562,3.61877 8.3825162,6.01836 3.363434,3.47095 5.274132,7.47073 6.073343,12.71368 0.161688,1.06071 0.183659,1.55724 0.184438,4.16751 9.31e-4,3.1917 -0.08235,4.09169 -0.583811,6.30767 -1.719097,7.59688 -6.711204,13.72041 -14.3528195,17.60576 -4.6405206,2.35946 -9.9057712,3.80341 -16.2559996,4.45806 -1.2526259,0.12913 -7.8301339,0.23547 -9.1863329,0.14851 z M 36.152685,154.04033 V 105.865 l 19.579166,0.002 c 19.535199,0.002 23.00329,0.0416 25.802166,0.29532 8.878976,0.80506 16.018137,3.37149 21.463003,7.71566 1.24134,0.9904 3.3768,3.14465 4.31097,4.34891 2.57549,3.3201 4.28075,6.90136 5.34154,11.21792 1.75402,7.1374 1.42935,15.85684 -0.84489,22.69066 -1.5694,4.7159 -3.77295,8.33883 -7.11173,11.69268 -2.44576,2.45679 -4.90675,4.20889 -8.13056,5.78854 -4.356718,2.13476 -9.294765,3.44607 -15.155333,4.02454 -1.400098,0.13819 -8.808728,0.36146 -9.040689,0.27245 -0.136339,-0.0523 -0.145644,-0.57176 -0.145644,-8.13069 v -8.0748 l 2.561167,-0.0539 c 2.623947,-0.0552 3.722844,-0.12876 5.355166,-0.35837 5.164989,-0.72651 9.120039,-2.51786 11.830668,-5.35841 2.280691,-2.39 3.582839,-5.29557 4.142037,-9.24237 0.176395,-1.24496 0.152062,-5.11514 -0.03991,-6.35 -0.593513,-3.81759 -1.876687,-6.49458 -4.241986,-8.84972 -3.194431,-3.1807 -7.588944,-4.87114 -13.967934,-5.37304 -0.662084,-0.0521 -5.452279,-0.0859 -12.170833,-0.0859 H 54.610018 v 40.08967 40.08967 h -9.228666 -9.228667 z m 71.035335,48.14762 c 0,-0.0152 9.49799,-21.68462 21.10665,-48.15417 l 21.10666,-48.12645 9.54782,-0.0215 9.54782,-0.0215 0.23913,0.52953 c 0.16444,0.36415 36.19742,83.5921 41.3298,95.46238 l 0.15573,0.36019 -9.91889,-0.0215 -9.91889,-0.0215 -5.88975,-14.11791 -5.88975,-14.11792 H 167.2308 c -7.34237,0 -11.36356,-0.0295 -11.34534,-0.0827 0.0155,-0.0454 1.55222,-3.70211 3.41489,-8.12612 l 3.38667,-8.04367 4.55788,-0.002 c 2.97683,-0.001 4.5481,-0.031 4.52967,-0.0859 -0.14126,-0.42053 -13.24749,-31.91597 -13.28195,-31.9177 -0.054,-0.003 -15.45711,36.502 -20.80886,49.31605 -2.04209,4.8895 -5.44043,13.01432 -7.55187,18.05516 l -3.83899,9.16517 h -9.55244 c -5.25385,-2.5e-4 -9.55244,-0.0127 -9.55244,-0.028 z m 200.49066,-48.14772 v -48.17544 l 35.28483,0.0213 35.28483,0.0213 v 8.04333 8.04334 l -26.05616,0.0213 -26.05617,0.0213 v 11.89553 11.89553 h 23.368 23.368 v 8.04334 8.04333 h -23.368 -23.368 v 12.10734 12.10733 h 26.88167 26.88166 v 8.04333 8.04334 h -36.11033 -36.11033 z m -595.76704,31.1041 c -0.26284,-0.62906 -1.1302,-3.09023 -1.63722,-4.64566 -5.03703,-15.45259 -5.8213,-32.3854 -2.24201,-48.40615 2.48009,-11.10079 6.88845,-21.38656 13.25475,-30.92652 13.42035,-20.110554 34.27007,-34.184472 57.81753,-39.027834 5.86713,-1.206781 11.07373,-1.773398 17.272,-1.879655 16.24229,-0.278441 32.07484,3.705034 46.27033,11.641631 10.28846,5.752202 19.51559,13.565744 26.89379,22.773675 l 1.17508,1.466489 -0.78274,0.904177 c -1.12145,1.295463 -4.21231,4.367207 -5.68038,5.645267 -2.00016,1.74128 -4.54226,3.73755 -7.31188,5.74191 l -0.43812,0.31707 -0.76099,-0.99737 c -3.25891,-4.27126 -7.38212,-8.532027 -11.65321,-12.041984 -11.26957,-9.261265 -24.78795,-14.82217 -39.41455,-16.213528 -4.29127,-0.408209 -9.3458,-0.408906 -13.716,-0.0019 -14.47564,1.348172 -28.15673,6.955813 -39.32155,16.117226 -3.70806,3.042692 -7.64286,6.992166 -10.61032,10.649886 -13.03946,16.07257 -18.57213,36.70243 -15.37965,57.3466 0.6317,4.08481 1.6967,8.35317 3.11496,12.48419 0.35094,1.02219 0.62541,1.87118 0.60994,1.88666 -0.0663,0.0663 -16.33082,7.08711 -17.13669,7.39731 -0.17202,0.0662 -0.21007,0.0389 -0.32307,-0.2315 z"
         id="path23"
         inkscape:connector-curvature="0" />
    </g>
  </g>
</svg>
